<?xml version="1.0" encoding="UTF-8"?>
<svg id="Layer_1" data-name="Layer 1" xmlns="http://www.w3.org/2000/svg" xmlns:xlink="http://www.w3.org/1999/xlink" viewBox="0 0 52.64 42.34">
  <defs>
    <style>
      .cls-1 {
        fill: url(#linear-gradient);
      }

      .cls-2 {
        fill: #fff;
      }

      .cls-3 {
        fill: url(#linear-gradient-3);
      }

      .cls-4 {
        fill: url(#linear-gradient-4);
      }

      .cls-5 {
        fill: url(#linear-gradient-2);
      }
    </style>
    <linearGradient id="linear-gradient" x1="0" y1="21.17" x2="52.64" y2="21.17" gradientUnits="userSpaceOnUse">
      <stop offset="0" stop-color="#49c7ff"/>
      <stop offset="1" stop-color="#bd36ff"/>
    </linearGradient>
    <linearGradient id="linear-gradient-2" x1="16.37" y1="26.17" x2="22.17" y2="26.17" xlink:href="#linear-gradient"/>
    <linearGradient id="linear-gradient-3" x1="23.99" y1="25.32" x2="29.79" y2="25.32" xlink:href="#linear-gradient"/>
    <linearGradient id="linear-gradient-4" x1="31.61" y1="24.48" x2="37.41" y2="24.48" xlink:href="#linear-gradient"/>
  </defs>
  <path class="cls-2" d="m16.39,26.49c-.17-1.6.97-3.03,2.56-3.2,1.59-.18,3.03.97,3.2,2.56.18,1.59-.97,3.02-2.56,3.2-1.59.17-3.02-.97-3.2-2.56Z"/>
  <path class="cls-2" d="m24.01,25.64c-.17-1.59.97-3.02,2.56-3.2,1.59-.17,3.03.98,3.2,2.57.18,1.59-.97,3.02-2.56,3.19-1.59.18-3.02-.97-3.2-2.56Z"/>
  <path class="cls-2" d="m31.63,24.8c-.17-1.59.97-3.02,2.56-3.2,1.59-.17,3.03.97,3.2,2.56.18,1.59-.97,3.03-2.56,3.2-1.59.18-3.02-.97-3.2-2.56Z"/>
  <g>
    <path class="cls-1" d="m52.56,24.13l-1.38-12.46s.06-.45.02-.65h.01s-.01-.09-.01-.09c-.19-1.09-.94-3.12-.94-3.12C47.95,2.59,42.54-.54,36.86.08L15.38,2.46l-.06-.05c-.46-.55-1.9-.75-1.9-.75l-.85.1C4.82,2.61-.77,9.59.09,17.34l1.37,12.44c.86,7.75,7.84,13.33,15.58,12.48l23.04-2.55c7.75-.86,13.34-7.83,12.48-15.58ZM37.21,2.98c2.17-.25,4.37.22,6.26,1.33,1.31.77,2.44,1.82,3.29,3.08l-25.14,2.78-4.15-5.01,19.74-2.18Zm2.66,33.82l-23.15,2.56c-6.14.68-11.68-3.76-12.36-9.9l-1.37-12.44c-.68-6.15,3.75-11.68,9.9-12.36l.37-.04,7.16,8.62,27.62-3.06c.12.4.2.81.18,1.24v.07c.13.17.16.47.16.47l1.39,12.49c.68,6.14-3.75,11.67-9.9,12.35Z"/>
    <path class="cls-2" d="m46.76,7.39l-25.14,2.78-4.15-5.01,19.74-2.18c2.17-.25,4.37.22,6.26,1.33,1.31.77,2.44,1.82,3.29,3.08Z"/>
    <path class="cls-2" d="m49.77,24.45l-1.39-12.49s-.03-.3-.15-.47v-.07c.01-.43-.07-.84-.19-1.24l-27.62,3.06-7.16-8.62-.37.04c-6.15.68-10.58,6.21-9.9,12.36l1.37,12.44c.68,6.14,6.22,10.58,12.36,9.9l23.15-2.56c6.15-.68,10.58-6.21,9.9-12.35Zm-30.18,4.6c-1.59.17-3.02-.97-3.2-2.56-.17-1.6.97-3.03,2.56-3.2,1.59-.18,3.03.97,3.2,2.56.18,1.59-.97,3.02-2.56,3.2Zm7.62-.85c-1.59.18-3.02-.97-3.2-2.56-.17-1.59.97-3.02,2.56-3.2,1.59-.17,3.03.98,3.2,2.57.18,1.59-.97,3.02-2.56,3.19Zm7.62-.84c-1.59.18-3.02-.97-3.2-2.56-.17-1.59.97-3.02,2.56-3.2,1.59-.17,3.03.97,3.2,2.56.18,1.59-.97,3.03-2.56,3.2Z"/>
    <path class="cls-5" d="m19.59,29.05c-1.59.17-3.02-.97-3.2-2.56-.17-1.6.97-3.03,2.56-3.2,1.59-.18,3.03.97,3.2,2.56.18,1.59-.97,3.02-2.56,3.2Z"/>
    <path class="cls-3" d="m27.21,28.2c-1.59.18-3.02-.97-3.2-2.56-.17-1.59.97-3.02,2.56-3.2,1.59-.17,3.03.98,3.2,2.57.18,1.59-.97,3.02-2.56,3.19Z"/>
    <path class="cls-4" d="m34.83,27.36c-1.59.18-3.02-.97-3.2-2.56-.17-1.59.97-3.02,2.56-3.2,1.59-.17,3.03.97,3.2,2.56.18,1.59-.97,3.03-2.56,3.2Z"/>
  </g>
</svg>